<?xml version="1.0" encoding="UTF-8"?>
<svg version="1.1" xmlns="http://www.w3.org/2000/svg" width="72" height="72">
<path d="M0 0 C2.375 0.3125 2.375 0.3125 5 1 C7.52059306 4.78088959 7.69416231 6.52650958 7 11 C4.90227334 13.09772666 2.58749519 14.56763659 0 16 C0.55429687 16.31453125 1.10859375 16.6290625 1.6796875 16.953125 C2.40414062 17.38109375 3.12859375 17.8090625 3.875 18.25 C4.59429687 18.66765625 5.31359375 19.0853125 6.0546875 19.515625 C8.20874162 21.15928076 8.99140585 22.51567335 10 25 C11.051875 24.938125 12.10375 24.87625 13.1875 24.8125 C18.13787213 25.05596092 20.55589048 26.55589048 24 30 C24.79698619 36.94516534 24.79698619 36.94516534 21.875 40.8125 C19.02445116 42.98139586 16.27130969 44.55453758 13 46 C14.175625 46.5878125 14.175625 46.5878125 15.375 47.1875 C18.42043553 49.29030072 19.22977169 50.40560122 20 54 C19.20241303 58.44369884 16.44369449 60.90180656 13.06640625 63.64453125 C9.62858489 65.89958609 5.96824111 67.02546729 2 68 C1.28070313 68.18304688 0.56140625 68.36609375 -0.1796875 68.5546875 C-13.59623364 70.67308952 -28.71817697 70.19436491 -40.25 62.375 C-43.5464265 59.5280862 -43.89038754 58.9682434 -44.375 54.6875 C-44 51 -44 51 -41.6875 48.125 C-39 46 -39 46 -36 45 C-36.02618408 44.39003174 -36.05236816 43.78006348 -36.0793457 43.15161133 C-36.18365719 40.37217242 -36.24842982 37.59314561 -36.3125 34.8125 C-36.3753418 33.37293945 -36.3753418 33.37293945 -36.43945312 31.90429688 C-36.563394 24.74051452 -36.563394 24.74051452 -33.6640625 20.9296875 C-29.89618643 18.20046349 -26.38706302 16.36063638 -21.875 15.1875 C-18.7311327 14.20827573 -18.7311327 14.20827573 -17.0625 11 C-15 8 -15 8 -11.75 6.6875 C-7.83013756 5.96885855 -3.96268625 5.41712487 0 5 C0 3.35 0 1.7 0 0 Z M10 32 C9.67 33.98 9.34 35.96 9 38 C12.465 37.505 12.465 37.505 16 37 C16.59070014 35.05396726 16.59070014 35.05396726 17 33 C15.87465895 31.64381501 15.87465895 31.64381501 12.9375 31.9375 C11.968125 31.958125 10.99875 31.97875 10 32 Z " fill="#DEDEDE" transform="translate(46,1)"/>
<path d="M0 0 C1.80078125 1.578125 1.80078125 1.578125 2.92578125 5.390625 C2.88453125 6.4425 2.84328125 7.494375 2.80078125 8.578125 C1.57808744 9.40033349 0.34726341 10.21045734 -0.88671875 11.015625 C-1.57121094 11.46808594 -2.25570312 11.92054687 -2.9609375 12.38671875 C-11.11192399 16.72537648 -21.41488716 14.8546347 -29.88671875 12.52734375 C-32.32456269 11.5266747 -33.57993717 10.63997549 -35.19921875 8.578125 C-35.76216488 5.44171086 -35.55348584 4.10182417 -33.76171875 1.453125 C-24.19194931 -5.54914532 -10.18519214 -5.8010587 0 0 Z " fill="#75544A" transform="translate(49.19921875,23.421875)"/>
<path d="M0 0 C5.41139241 0.60126582 5.41139241 0.60126582 7.9375 2.3125 C9 4 9 4 9 5.875 C6.39133252 11.41841838 1.82545429 13.8301621 -3.5234375 16.203125 C-14.30369452 19.67185123 -30.98038335 20.07754157 -41.3125 14.82421875 C-44.18368357 13.08612727 -46.62336724 11.37663276 -49 9 C-49.1875 5.9375 -49.1875 5.9375 -49 3 C-48 2 -48 2 -44.875 1.4375 C-40.47340157 2.07644171 -40.1860866 2.51944648 -37.5625 5.8125 C-34.15247255 10.08448561 -31.40221837 12.03834856 -26 13 C-17.70505704 13.83787303 -12.21873404 12.78052925 -5.25 8.1875 C-2.68153339 5.69037969 -1.41247423 3.27099295 0 0 Z " fill="#DFDFE0" transform="translate(54,49)"/>
<path d="M0 0 C0.33 0 0.66 0 1 0 C1.33 2.31 1.66 4.62 2 7 C1.21625 7.144375 0.4325 7.28875 -0.375 7.4375 C-2.96421018 7.87798925 -2.96421018 7.87798925 -5 9 C-5.41809201 11.83151973 -5.41809201 11.83151973 -5 15 C1.09441444 21.46377289 9.36882511 22.79884796 17.8671875 23.16796875 C29.41149871 23.30035111 39.02753793 22.35296733 49 16 C51.16622058 13.32314652 51.16622058 13.32314652 51.0625 11 C49.33076167 7.74025726 46.33513448 7.21277618 43 6 C42.79375 6.886875 42.5875 7.77375 42.375 8.6875 C40.19150032 13.94774923 36.5755234 16.10411414 31.8125 18.8125 C24.80246455 20.99595366 17.54233684 20.96942125 10.7265625 18.06640625 C7.74564952 16.22525411 6.01863488 13.8387053 4 11 C5.96690292 11.95967571 7.88491968 12.92977281 9.75390625 14.0703125 C16.26243142 17.86578074 22.52784508 18.11647065 29.78515625 16.3046875 C35.33354754 14.35989055 38.28722882 12.42554236 41 7 C41.66666667 5.66666667 42.33333333 4.33333333 43 3 C51.15017986 5.10161871 51.15017986 5.10161871 54.1875 8.3125 C55.32423546 12.07247114 54.8417051 13.52909423 53 17 C48.57959963 22.1301548 43.47531545 24.40977235 37 26 C36.28070313 26.18304688 35.56140625 26.36609375 34.8203125 26.5546875 C21.40376636 28.67308952 6.28182303 28.19436491 -5.25 20.375 C-8.5464265 17.5280862 -8.89038754 16.9682434 -9.375 12.6875 C-9 9 -9 9 -6.6875 6.125 C-4 4 -4 4 -1 3 C-0.67 2.01 -0.34 1.02 0 0 Z " fill="#BCCED3" transform="translate(11,43)"/>
<path d="M0 0 C2.375 0.3125 2.375 0.3125 5 1 C7.49732489 4.74598733 7.62175294 6.57001031 7 11 C2.96939662 14.73568118 -0.59140602 15.74244791 -6 16 C-10.34528872 15.77612096 -14.66988002 15.42324481 -19 15 C-17.94492294 12.03259576 -17.07972248 9.65527985 -14.30078125 7.96875 C-9.61871535 6.12903845 -4.99083891 5.44561062 0 5 C0 3.35 0 1.7 0 0 Z " fill="#B8CED4" transform="translate(46,1)"/>
<path d="M0 0 C1.89492188 0.01353516 1.89492188 0.01353516 3.828125 0.02734375 C4.79234375 0.03894531 5.7565625 0.05054687 6.75 0.0625 C5.76 0.7225 4.77 1.3825 3.75 2.0625 C4.44867188 2.24425781 5.14734375 2.42601562 5.8671875 2.61328125 C6.77726562 2.86464844 7.68734375 3.11601562 8.625 3.375 C9.52992187 3.61863281 10.43484375 3.86226562 11.3671875 4.11328125 C13.75 5.0625 13.75 5.0625 15.75 8.0625 C12.625 7.54166667 9.5 7.02083333 6.375 6.5 C5.075625 6.2834375 5.075625 6.2834375 3.75 6.0625 C3.75 7.0525 3.75 8.0425 3.75 9.0625 C-0.91666667 8.39583333 -5.58333333 7.72916667 -10.25 7.0625 C-10.58 8.3825 -10.91 9.7025 -11.25 11.0625 C-13.23 11.0625 -15.21 11.0625 -17.25 11.0625 C-17.58 9.7425 -17.91 8.4225 -18.25 7.0625 C-15.94 5.7425 -13.63 4.4225 -11.25 3.0625 C-11.25 2.4025 -11.25 1.7425 -11.25 1.0625 C-7.49600202 -0.1414337 -3.91782588 -0.03627617 0 0 Z " fill="#B18D74" transform="translate(34.25,19.9375)"/>
<path d="M0 0 C3.875 1.875 3.875 1.875 5 3 C5.23653523 5.52596259 5.42173692 8.03107207 5.5625 10.5625 C5.60568359 11.27341797 5.64886719 11.98433594 5.69335938 12.71679688 C5.79971777 14.47761912 5.90038846 16.2387832 6 18 C2.15625 16.3125 2.15625 16.3125 0.75 13.5 C-0.22400408 8.95464764 -0.16465381 4.62860166 0 0 Z " fill="#FBFBFB" transform="translate(13,35)"/>
<path d="M0 0 C1.96690292 0.95967571 3.88491968 1.92977281 5.75390625 3.0703125 C11.41714056 6.37284655 16.53617166 6.91317243 23 6 C27.7498477 4.5921504 31.88014177 2.74657215 36 0 C34.49235345 4.22141034 31.78707131 5.80349864 28 8 C21.22387592 10.16892674 13.25768155 9.84817918 6.7265625 7.06640625 C3.74564952 5.22525411 2.01863488 2.8387053 0 0 Z " fill="#84B2B7" transform="translate(15,54)"/>
<path d="M0 0 C1.32 0 2.64 0 4 0 C4 1.98 4 3.96 4 6 C6.97 7.65 9.94 9.3 13 11 C13 11.33 13 11.66 13 12 C7.80202465 12.64974692 4.91385326 11.12397801 0.63671875 8.484375 C-1.34780113 6.68457177 -1.80918553 5.66108831 -2 3 C-1.34 2.01 -0.68 1.02 0 0 Z " fill="#FBFBFB" transform="translate(8,51)"/>
<path d="M0 0 C2.31 0.33 4.62 0.66 7 1 C7.33 1.99 7.66 2.98 8 4 C6.7934375 3.9690625 6.7934375 3.9690625 5.5625 3.9375 C3.06645115 3.70366379 3.06645115 3.70366379 2 5 C0.25234548 5.09969841 -1.4995103 5.12968045 -3.25 5.125 C-4.20390625 5.12757812 -5.1578125 5.13015625 -6.140625 5.1328125 C-8.86463928 5.00628725 -11.34675009 4.61005381 -14 4 C-13.67 3.01 -13.34 2.02 -13 1 C-8.65535464 1.60825035 -4.32448133 2.26167392 0 3 C0 2.01 0 1.02 0 0 Z " fill="#AF8A70" transform="translate(40,28)"/>
<path d="M0 0 C6.52307692 -0.36923077 6.52307692 -0.36923077 8.9375 1.5 C9.288125 1.995 9.63875 2.49 10 3 C9.04033823 6.22795322 8.33900769 7.74128361 5.625 9.8125 C3 11 3 11 -1 11 C-1 10.01 -1 9.02 -1 8 C1.31 7.34 3.62 6.68 6 6 C6 5.01 6 4.02 6 3 C3.03 2.505 3.03 2.505 0 2 C0 1.34 0 0.68 0 0 Z " fill="#B9CDD2" transform="translate(56,31)"/>
<path d="M0 0 C9.17286652 1.33041575 9.17286652 1.33041575 12.625 4.125 C13.07875 4.74375 13.5325 5.3625 14 6 C10.875 5.47916667 7.75 4.95833333 4.625 4.4375 C3.325625 4.2209375 3.325625 4.2209375 2 4 C2 4.99 2 5.98 2 7 C1.01 6.67 0.02 6.34 -1 6 C-0.67 5.34 -0.34 4.68 0 4 C0 2.68 0 1.36 0 0 Z " fill="#B08B71" transform="translate(36,22)"/>
<path d="M0 0 C3.96 0 7.92 0 12 0 C12 0.66 12 1.32 12 2 C8.79619983 4.13586678 7.98060033 4.23132175 4.3125 4.125 C3.10013672 4.09792969 3.10013672 4.09792969 1.86328125 4.0703125 C0.94095703 4.03550781 0.94095703 4.03550781 0 4 C0 2.68 0 1.36 0 0 Z " fill="#CED8DA" transform="translate(28,16)"/>
<path d="M0 0 C1.89492188 0.01353516 1.89492188 0.01353516 3.828125 0.02734375 C4.79234375 0.03894531 5.7565625 0.05054687 6.75 0.0625 C6.75 0.3925 6.75 0.7225 6.75 1.0625 C4.12634644 1.45096807 1.50209144 1.82374888 -1.125 2.1875 C-1.87136719 2.29964844 -2.61773437 2.41179688 -3.38671875 2.52734375 C-5.33159197 2.79016446 -7.29165038 2.9341515 -9.25 3.0625 C-9.91 2.4025 -10.57 1.7425 -11.25 1.0625 C-7.49600202 -0.1414337 -3.91782588 -0.03627617 0 0 Z " fill="#93827C" transform="translate(34.25,19.9375)"/>
<path d="M0 0 C1.32 0.33 2.64 0.66 4 1 C4.1875 3.375 4.1875 3.375 4 6 C1 8 1 8 -2 8 C-1.67 7.4225 -1.34 6.845 -1 6.25 C0.27075898 3.80116138 0.27075898 3.80116138 0 0 Z " fill="#FCFCFC" transform="translate(55,51)"/>
<path d="M0 0 C1.98 0 3.96 0 6 0 C6 1.65 6 3.3 6 5 C4.125 4.75 4.125 4.75 2 4 C0.75 1.9375 0.75 1.9375 0 0 Z " fill="#B3A597" transform="translate(29,22)"/>
<path d="M0 0 C2.31 0 4.62 0 7 0 C7.66 1.32 8.32 2.64 9 4 C4.545 3.01 4.545 3.01 0 2 C0 1.34 0 0.68 0 0 Z " fill="#6DA6AD" transform="translate(56,31)"/>
<path d="M0 0 C1.65 0 3.3 0 5 0 C3.515 2.475 3.515 2.475 2 5 C0.68 4.67 -0.64 4.34 -2 4 C-1.34 2.68 -0.68 1.36 0 0 Z " fill="#6F4D42" transform="translate(38,26)"/>
</svg>
